<?xml version="1.0" encoding="UTF-8"?>
<svg shape-rendering="geometricPrecision" text-rendering="geometricPrecision" viewBox="0 0 300 70" xmlns="http://www.w3.org/2000/svg">
<g transform="scale(1.07)">
<path transform="scale(.7)" d="m386.11 5.429c-1.396-1.452-3.06-3.634-5.308-4.591s-5.081-0.689-7.096-0.689h-107.55c-4.028 0-7.326 3.296-7.326 7.326v76.095c0 4.029 3.298 7.327 7.326 7.327h126.27c4.029 0 7.327-3.298 7.327-7.327v-56.626c0-1.918 0.343-5.071-0.498-7.259-0.932-2.406-3.115-3.826-4.58-5.348l-8.568-8.908z" fill="#9bcc6a"/>
<path transform="matrix(.7 0 0 .7 -1.0579 0)" d="m313.48 60.453c0 4.072-0.904 7.732-2.713 10.977-1.808 3.247-4.454 5.79-7.939 7.628-3.484 1.837-7.614 2.756-12.396 2.756-5.727 0-10.455-1.256-14.176-3.766-2.641-1.809-4.785-4.221-6.436-7.237-1.649-3.015-2.475-5.948-2.475-8.796 0-1.653 0.495-3.069 1.484-4.249 0.99-1.179 2.252-1.769 3.786-1.769 1.236 0 2.286 0.459 3.146 1.378 0.855 0.918 1.589 2.282 2.197 4.088 0.738 2.145 1.537 3.936 2.395 5.375 0.856 1.439 2.065 2.628 3.623 3.56 1.559 0.935 3.604 1.4 6.139 1.4 3.484 0 6.316-0.94 8.494-2.824 2.179-1.883 3.268-4.233 3.268-7.052 0-2.234-0.587-4.049-1.762-5.442-1.176-1.395-2.693-2.458-4.556-3.193-1.86-0.735-4.349-1.516-7.463-2.342-4.171-1.133-7.663-2.459-10.476-3.975-2.811-1.516-5.043-3.583-6.692-6.201s-2.474-5.872-2.474-9.762c0-3.704 0.87-6.997 2.612-9.876 1.742-2.878 4.267-5.091 7.564-6.638 3.299-1.546 7.181-2.32 11.642-2.32 3.563 0 6.646 0.514 9.248 1.539 2.6 1.027 4.758 2.389 6.475 4.088 1.714 1.699 2.97 3.484 3.762 5.352 0.791 1.868 1.188 3.69 1.188 5.466 0 1.623-0.496 3.085-1.485 4.387s-2.226 1.952-3.703 1.952c-1.347 0-2.367-0.39-3.068-1.171-0.7-0.781-1.46-2.059-2.278-3.835-1.055-2.542-2.323-4.525-3.801-5.949-1.479-1.423-3.854-2.136-7.128-2.136-3.037 0-5.485 0.774-7.346 2.32-1.861 1.545-2.792 3.407-2.792 5.581 0 1.348 0.317 2.511 0.949 3.491 0.634 0.981 1.506 1.822 2.614 2.526 1.109 0.705 2.229 1.256 3.365 1.654 1.139 0.398 3.01 0.98 5.624 1.746 3.273 0.889 6.237 1.869 8.891 2.94 2.653 1.073 4.909 2.374 6.771 3.906 1.86 1.531 3.312 3.468 4.355 5.81 1.047 2.343 1.567 5.213 1.567 8.613z" fill="#fff"/>
<path transform="matrix(.7 0 0 .7 -.93458 0)" d="m317.09 73.498v-53.056c0-2.756 0.541-4.823 1.624-6.202 1.084-1.378 2.48-2.067 4.196-2.067 1.77 0 3.202 0.682 4.298 2.045 1.095 1.363 1.644 3.438 1.644 6.224v53.056c0 2.788-0.549 4.869-1.644 6.247-1.096 1.379-2.528 2.068-4.298 2.068-1.689 0-3.082-0.697-4.178-2.091-1.094-1.392-1.642-3.467-1.642-6.224z" fill="#fff"/>
<path transform="scale(.7)" d="m353.9 70.513-9.307-42.905v46.488c0 2.572-0.494 4.502-1.483 5.788-0.991 1.285-2.303 1.93-3.941 1.93-1.584 0-2.877-0.637-3.881-1.906-1.004-1.271-1.504-3.208-1.504-5.812v-53.287c0-2.939 0.659-4.922 1.979-5.949 1.32-1.025 3.104-1.539 5.345-1.539h3.646c2.19 0 3.78 0.229 4.771 0.689 0.99 0.459 1.721 1.286 2.199 2.48 0.473 1.194 1.015 3.14 1.622 5.834l8.435 36.888 8.436-36.888c0.607-2.694 1.147-4.64 1.622-5.834 0.476-1.194 1.207-2.021 2.199-2.48 0.989-0.46 2.58-0.689 4.772-0.689h3.643c2.242 0 4.024 0.513 5.346 1.539 1.321 1.026 1.979 3.009 1.979 5.949v53.287c0 2.572-0.494 4.502-1.484 5.788-0.99 1.285-2.318 1.93-3.98 1.93-1.559 0-2.838-0.645-3.842-1.93-1.002-1.286-1.503-3.216-1.503-5.788v-46.488l-9.306 42.905c-0.608 2.787-1.104 4.83-1.486 6.133-0.383 1.302-1.09 2.487-2.12 3.56-1.029 1.071-2.454 1.608-4.275 1.608-1.372 0-2.535-0.345-3.484-1.032-0.95-0.691-1.69-1.568-2.218-2.643-0.528-1.072-0.946-2.259-1.246-3.561-0.306-1.302-0.617-2.657-0.934-4.065z" fill="#fff"/>
<path transform="scale(.7)" d="m38.282 74.177v-1.447c-1.693 2.251-3.363 4.082-5.011 5.492-1.647 1.411-3.434 2.483-5.358 3.216-1.925 0.731-4.027 1.098-6.305 1.098-3.018 0-5.812-0.741-8.383-2.224-2.573-1.483-4.796-3.599-6.675-6.349-1.877-2.751-3.303-5.983-4.272-9.698-0.97-3.716-1.454-7.733-1.454-12.057 0-9.143 1.925-16.27 5.773-21.378s8.915-7.662 15.197-7.662c3.632 0 6.698 0.724 9.192 2.169 2.494 1.447 4.927 3.671 7.297 6.671v-21.591c0-3.001 0.517-5.268 1.548-6.804s2.502-2.304 4.412-2.304c1.909 0 3.378 0.705 4.41 2.116 1.033 1.411 1.547 3.492 1.547 6.242v64.51c0 2.787-0.553 4.877-1.661 6.27-1.109 1.394-2.541 2.09-4.295 2.09-1.725 0-3.149-0.723-4.273-2.171-1.127-1.447-1.689-3.511-1.689-6.189zm-24.803-21.485c0 3.964 0.531 7.34 1.594 10.126 1.061 2.786 2.517 4.886 4.364 6.296 1.848 1.412 3.863 2.116 6.051 2.116 2.217 0 4.241-0.669 6.074-2.009 1.832-1.339 3.294-3.394 4.387-6.162 1.094-2.768 1.641-6.223 1.641-10.367 0-3.894-0.547-7.242-1.641-10.047-1.093-2.804-2.57-4.947-4.434-6.429-1.863-1.482-3.904-2.224-6.12-2.224-2.311 0-4.373 0.759-6.191 2.277-1.816 1.519-3.225 3.697-4.225 6.538-1.001 2.839-1.5 6.134-1.5 9.885z" fill="#2ea6de"/>
<path transform="scale(.7)" d="m102.51 52.799c0 4.359-0.585 8.377-1.755 12.055-1.171 3.681-2.864 6.843-5.081 9.484-2.218 2.645-4.866 4.671-7.945 6.082-3.08 1.41-6.545 2.116-10.392 2.116-3.819 0-7.252-0.714-10.301-2.145-3.049-1.427-5.689-3.473-7.922-6.134-2.233-2.66-3.926-5.805-5.081-9.431-1.154-3.624-1.732-7.635-1.732-12.028 0-4.428 0.584-8.483 1.756-12.163 1.169-3.679 2.848-6.822 5.035-9.431 2.185-2.606 4.834-4.616 7.945-6.027 3.11-1.411 6.542-2.117 10.301-2.117 3.816 0 7.282 0.714 10.392 2.143 3.11 1.43 5.774 3.465 7.991 6.109s3.903 5.786 5.058 9.43 1.731 7.663 1.731 12.057zm-12.656 0c0-5.964-1.132-10.609-3.396-13.931-2.263-3.322-5.305-4.983-9.122-4.983-2.464 0-4.635 0.742-6.514 2.223-1.877 1.483-3.325 3.67-4.341 6.564-1.016 2.893-1.524 6.269-1.524 10.126 0 3.822 0.5 7.162 1.501 10.02 1 2.858 2.431 5.046 4.296 6.564 1.862 1.518 4.057 2.276 6.583 2.276 3.816 0 6.859-1.67 9.122-5.01 2.264-3.338 3.395-7.956 3.395-13.849z" fill="#2ea6de"/>
<path transform="scale(.7)" d="m151.4 64.426c0 1.822-0.471 3.77-1.408 5.84-0.94 2.072-2.373 4.046-4.296 5.921-1.925 1.876-4.35 3.385-7.276 4.528-2.925 1.143-6.219 1.714-9.884 1.714-7.791 0-13.873-2.634-18.246-7.903-4.374-5.268-6.559-12.332-6.559-21.19 0-6.001 1-11.306 3.002-15.915 2.001-4.607 4.896-8.169 8.684-10.688 3.788-2.518 8.313-3.776 13.579-3.776 3.264 0 6.259 0.554 8.984 1.66 2.726 1.107 5.035 2.537 6.929 4.287 1.893 1.751 3.34 3.617 4.341 5.599 1 1.982 1.501 3.832 1.501 5.546 0 1.75-0.562 3.233-1.686 4.447-1.125 1.215-2.487 1.822-4.088 1.822-1.047 0-1.917-0.313-2.61-0.938s-1.471-1.634-2.332-3.028c-1.541-2.714-3.15-4.75-4.828-6.108-1.679-1.358-3.811-2.036-6.397-2.036-3.727 0-6.729 1.688-9.007 5.063-2.279 3.375-3.418 7.986-3.418 13.85 0 2.751 0.292 5.278 0.878 7.581 0.584 2.306 1.432 4.27 2.541 5.895 1.107 1.627 2.448 2.858 4.018 3.696 1.57 0.841 3.295 1.261 5.173 1.261 2.525 0 4.688-0.678 6.49-2.037 1.801-1.356 3.396-3.429 4.781-6.215 0.77-1.643 1.601-2.929 2.495-3.858 0.892-0.928 1.986-1.393 3.278-1.393 1.541 0 2.818 0.68 3.834 2.036 1.019 1.356 1.527 2.804 1.527 4.339z" fill="#2ea6de"/>
<path transform="scale(.7)" d="m154.68 24.348h1.386v-8.787c0-2.357 0.054-4.207 0.162-5.545 0.107-1.34 0.407-2.492 0.9-3.456 0.492-1 1.201-1.813 2.125-2.438s1.955-0.938 3.095-0.938c1.6 0 3.048 0.696 4.341 2.088 0.862 0.93 1.409 2.064 1.64 3.403 0.23 1.34 0.346 3.242 0.346 5.707v9.966h4.62c1.785 0 3.147 0.492 4.087 1.474 0.939 0.983 1.409 2.241 1.409 3.777 0 1.965-0.669 3.341-2.008 4.126-1.34 0.786-3.257 1.178-5.751 1.178h-2.355v26.897c0 2.287 0.069 4.046 0.208 5.279 0.139 1.231 0.508 2.232 1.108 3 0.601 0.769 1.577 1.151 2.933 1.151 0.739 0 1.74-0.151 3.002-0.455 1.262-0.303 2.247-0.456 2.956-0.456 1.017 0 1.932 0.475 2.748 1.421s1.224 2.115 1.224 3.51c0 2.357-1.108 4.16-3.326 5.411-2.217 1.25-5.404 1.875-9.561 1.875-3.943 0-6.929-0.769-8.962-2.305-2.033-1.534-3.364-3.66-3.995-6.376-0.632-2.714-0.947-6.34-0.947-10.876v-28.076h-1.662c-1.817 0-3.204-0.5-4.158-1.5-0.955-1-1.432-2.268-1.432-3.804s0.5-2.794 1.501-3.777 2.457-1.474 4.366-1.474z" fill="#2ea6de"/>
<path transform="scale(.7)" d="m227.56 52.799c0 4.359-0.585 8.377-1.754 12.055-1.172 3.681-2.864 6.843-5.082 9.484-2.217 2.645-4.866 4.671-7.944 6.082-3.08 1.41-6.543 2.116-10.393 2.116-3.819 0-7.252-0.714-10.3-2.145-3.049-1.427-5.69-3.473-7.922-6.134-2.233-2.66-3.926-5.805-5.082-9.431-1.154-3.624-1.731-7.635-1.731-12.028 0-4.428 0.584-8.483 1.755-12.163 1.169-3.679 2.848-6.822 5.034-9.431 2.187-2.606 4.834-4.616 7.945-6.027 3.109-1.411 6.543-2.117 10.3-2.117 3.817 0 7.282 0.714 10.393 2.143 3.109 1.43 5.773 3.465 7.99 6.109s3.903 5.786 5.059 9.43 1.732 7.663 1.732 12.057zm-12.657 0c0-5.964-1.129-10.609-3.395-13.931-2.263-3.322-5.305-4.983-9.122-4.983-2.464 0-4.635 0.742-6.513 2.223-1.878 1.483-3.326 3.67-4.342 6.564-1.016 2.893-1.524 6.269-1.524 10.126 0 3.822 0.5 7.162 1.501 10.02 1 2.858 2.433 5.046 4.296 6.564s4.057 2.276 6.583 2.276c3.817 0 6.859-1.67 9.122-5.01 2.265-3.338 3.394-7.956 3.394-13.849z" fill="#2ea6de"/>
<path transform="scale(.7)" d="m241.6 61.425v12.217c0 2.966-0.601 5.188-1.802 6.671-1.202 1.482-2.727 2.224-4.573 2.224-1.818 0-3.311-0.75-4.479-2.25-1.172-1.5-1.758-3.715-1.758-6.645v-40.721c0-6.572 2.048-9.859 6.145-9.859 2.094 0 3.604 0.769 4.527 2.304 0.924 1.536 1.432 3.805 1.524 6.806 1.508-3.001 3.056-5.27 4.641-6.806 1.587-1.535 3.704-2.304 6.352-2.304s5.221 0.769 7.714 2.304c2.495 1.536 3.741 3.573 3.741 6.109 0 1.786-0.531 3.26-1.594 4.42-1.062 1.161-2.21 1.741-3.44 1.741-0.462 0-1.575-0.33-3.348-0.99-1.772-0.661-3.335-0.992-4.69-0.992-1.847 0-3.356 0.563-4.525 1.688-1.171 1.125-2.078 2.796-2.726 5.01-0.647 2.215-1.091 4.85-1.34 7.903-0.246 3.053-0.369 6.776-0.369 11.17z" fill="#2ea6de"/>
</g>
</svg>
